<?xml version="1.0" standalone="no"?>
<!DOCTYPE svg PUBLIC "-//W3C//DTD SVG 20010904//EN"
 "http://www.w3.org/TR/2001/REC-SVG-20010904/DTD/svg10.dtd">
<svg version="1.0" xmlns="http://www.w3.org/2000/svg"
 width="2760.000000pt" height="1504.000000pt" viewBox="0 0 2760.000000 1504.000000"
 preserveAspectRatio="xMidYMid meet">

<g transform="translate(0.000000,1504.000000) scale(0.100000,-0.100000)"
fill="#000000" stroke="none">
<path d="M18460 13017 c-27 -21 -16 -41 38 -72 61 -35 174 -134 166 -147 -3
-4 0 -8 5 -8 14 0 14 -23 0 -37 -15 -15 -39 -5 -32 13 3 8 0 14 -6 14 -6 0
-10 -6 -8 -12 1 -7 -3 -12 -9 -11 -7 1 -24 -9 -38 -22 -14 -13 -26 -22 -26
-19 0 3 -11 -8 -25 -24 -14 -17 -25 -37 -25 -46 0 -9 -3 -15 -7 -15 -19 3 -33
-2 -33 -12 0 -5 4 -8 9 -4 10 6 26 -13 18 -21 -3 -3 -14 -1 -24 4 -15 9 -22 6
-33 -11 -7 -12 -12 -22 -10 -22 2 0 -2 -10 -9 -23 -8 -15 -18 -21 -28 -18 -12
5 -14 1 -9 -19 5 -18 3 -23 -8 -19 -8 3 -17 0 -22 -7 -4 -8 -3 -10 4 -5 7 4
12 2 12 -3 0 -6 -7 -11 -16 -11 -8 0 -12 -5 -9 -10 4 -6 3 -10 -2 -9 -27 5
-42 -2 -36 -17 5 -14 2 -14 -28 2 -51 27 -55 26 -50 -19 3 -34 1 -39 -13 -34
-46 18 -1 -42 142 -187 87 -89 207 -212 267 -273 60 -62 117 -113 127 -113 30
0 230 207 265 275 40 76 57 165 51 258 -12 159 -62 243 -274 459 -9 10 -21 15
-26 12 -5 -3 -7 0 -6 7 2 7 -6 13 -17 14 -13 0 -20 7 -20 20 0 11 -6 19 -12
18 -7 -2 -12 2 -10 8 3 14 -87 84 -163 127 -44 24 -58 28 -70 19z m240 -185
c0 -5 -7 -9 -15 -9 -8 0 -12 4 -9 9 3 4 9 8 15 8 5 0 9 -4 9 -8z m-85 -91 c3
-5 1 -12 -5 -16 -5 -3 -10 1 -10 9 0 18 6 21 15 7z m-160 -161 c4 -6 1 -9 -7
-8 -7 2 -12 -3 -10 -10 1 -8 -2 -11 -8 -7 -8 5 -7 11 1 21 14 17 16 17 24 4z"/>
<path d="M17815 12760 c-18 -20 -18 -21 5 -45 13 -14 28 -25 33 -25 5 0 -2 12
-17 27 -25 25 -25 27 -10 45 10 10 15 18 12 18 -3 0 -13 -9 -23 -20z"/>
<path d="M18651 12764 c0 -11 3 -14 6 -6 3 7 2 16 -1 19 -3 4 -6 -2 -5 -13z"/>
<path d="M17574 12525 c-33 -37 -61 -71 -63 -77 -4 -13 281 -300 452 -455 119
-108 177 -178 177 -216 0 -8 -163 -183 -363 -389 -199 -205 -447 -461 -550
-568 -243 -253 -262 -271 -277 -256 -8 8 -10 7 -4 -7 8 -21 -23 -60 -40 -50
-6 3 -8 3 -4 -2 8 -8 -111 -142 -250 -282 -67 -67 -74 -72 -89 -58 -8 9 -21
14 -28 11 -7 -2 -15 5 -18 16 -3 11 -10 17 -16 13 -6 -3 -18 0 -26 9 -18 18
-20 30 -2 20 6 -4 -6 12 -27 34 -38 40 -41 41 -62 27 -21 -14 -25 -13 -51 11
-15 14 -28 31 -29 37 -3 34 -5 38 -16 31 -7 -4 -8 -3 -4 5 11 17 -13 41 -41
41 -16 0 -23 5 -20 13 2 6 10 11 16 9 6 -1 11 4 11 10 0 9 4 8 10 -2 8 -12 10
-10 10 8 0 16 4 21 13 16 6 -4 9 -4 5 1 -4 4 -3 17 3 27 20 38 -8 14 -98 -81
-48 -52 -81 -92 -72 -89 9 3 22 2 30 -3 10 -6 7 -9 -13 -9 -15 0 -32 6 -37 13
-63 78 -63 78 -141 87 -41 5 -150 9 -241 10 -205 0 -199 4 -240 -135 -138
-461 -349 -1288 -333 -1304 2 -3 84 23 182 56 97 33 402 138 677 232 l500 171
213 218 c118 119 246 258 286 307 83 102 371 406 871 918 609 625 720 746 710
774 -15 45 -899 915 -935 921 -11 2 -39 -21 -76 -63z m-1138 -2256 c9 -11 19
-31 20 -45 3 -24 2 -25 -15 -10 -10 9 -21 13 -24 9 -4 -3 -7 1 -7 10 0 10 5
17 10 17 6 0 10 5 10 10 0 17 -17 11 -26 -10 -9 -20 -9 -20 -22 1 -12 19 -12
21 2 16 8 -3 18 -1 22 5 4 6 3 8 -4 4 -6 -3 -13 -3 -16 2 -10 17 33 10 50 -9z
m-530 -25 c19 -5 22 -17 32 -138 6 -73 16 -145 22 -160 13 -36 55 -52 201 -75
67 -11 128 -26 135 -33 18 -17 46 -157 42 -205 l-3 -38 -270 -92 c-148 -50
-280 -92 -292 -92 -16 -1 -29 13 -52 52 -39 68 -95 121 -151 143 -63 24 -71
32 -63 63 5 21 98 374 144 544 l10 37 112 0 c62 0 121 -3 133 -6z m458 -9 c-4
-8 -8 -15 -10 -15 -2 0 -4 7 -4 15 0 8 4 15 10 15 5 0 7 -7 4 -15z"/>
<path d="M10685 11427 c-90 -48 -195 -157 -238 -248 -58 -123 -79 -195 -79
-279 0 -89 17 -154 68 -251 56 -107 168 -194 275 -214 32 -6 41 -3 73 25 31
28 36 38 35 74 0 22 -6 62 -12 88 -10 41 -19 52 -67 85 -142 98 -147 287 -11
422 26 25 62 58 81 73 32 25 33 27 8 18 -22 -7 -26 -6 -21 5 3 10 -1 15 -13
15 -11 0 -15 3 -8 8 10 7 -17 42 -33 42 -5 0 -8 4 -8 9 0 5 -3 13 -7 17 -5 4
-8 -3 -8 -15 0 -12 -4 -19 -10 -16 -10 6 -7 45 5 65 3 5 2 10 -4 10 -5 0 -11
-6 -14 -12 -3 -10 -7 -10 -19 -1 -8 7 -18 11 -22 8 -3 -3 -2 0 4 7 9 11 28 18
58 20 6 1 12 9 12 17 0 9 7 27 16 39 20 29 10 28 -61 -11z"/>
<path d="M16515 10758 c-43 -46 -94 -100 -114 -121 -20 -21 -28 -35 -18 -32 9
4 17 11 17 15 0 5 18 19 40 31 22 12 43 32 46 43 9 29 44 66 73 77 13 5 21 12
17 16 -3 4 1 17 9 30 9 13 14 23 12 23 -2 0 -39 -37 -82 -82z"/>
<path d="M16329 10563 c-13 -16 -12 -17 4 -4 9 7 17 15 17 17 0 8 -8 3 -21
-13z"/>
<path d="M11277 10499 c-179 -20 -393 -124 -509 -246 -90 -95 -159 -228 -177
-343 -12 -73 3 -186 33 -253 31 -70 100 -145 180 -195 124 -77 176 -83 229
-24 17 19 18 27 6 98 -13 85 -21 96 -100 150 -96 66 -114 181 -47 306 40 75
96 125 194 172 121 58 211 79 318 74 122 -6 159 -24 216 -101 57 -78 113 -109
199 -108 68 0 123 20 164 59 30 28 57 70 39 58 -5 -3 -15 0 -21 7 -11 15 -38
16 -59 3 -6 -4 -17 -4 -24 0 -6 4 -9 3 -6 -2 3 -5 0 -15 -8 -22 -12 -10 -14
-10 -14 2 0 10 -9 13 -31 11 -28 -4 -30 -3 -17 13 11 15 11 16 -3 4 -14 -10
-20 -10 -34 4 -12 13 -16 13 -14 3 4 -21 -11 -60 -21 -54 -5 3 -22 7 -39 9
-22 2 -31 -1 -31 -12 0 -11 -3 -12 -13 -3 -8 6 -17 8 -20 4 -9 -8 -47 27 -47
44 0 7 -5 13 -11 13 -5 0 -7 5 -4 10 3 6 2 10 -4 10 -6 0 -8 7 -5 15 5 13 9
13 22 3 13 -11 15 -10 9 6 -6 15 -4 17 13 13 13 -3 18 -1 13 6 -10 17 -12 97
-1 97 5 0 6 -6 2 -12 -5 -9 -2 -9 9 1 18 15 23 26 7 16 -5 -3 -10 1 -10 10 0
11 -5 15 -15 11 -8 -3 -22 -9 -31 -13 -12 -4 -15 -2 -12 8 3 8 12 13 22 11 24
-4 20 4 -16 29 -22 16 -28 17 -19 6 14 -18 2 -24 -15 -7 -8 8 -20 8 -40 0 -27
-9 -28 -9 -10 5 18 13 15 19 -6 16 -4 0 -5 5 -2 12 3 9 -4 13 -23 13 -21 -1
-29 5 -34 24 -4 14 -7 19 -8 12 -1 -7 -5 -11 -10 -7 -5 3 -12 1 -15 -4 -4 -5
-2 -12 4 -16 5 -3 10 -10 10 -16 0 -5 -8 -1 -18 9 -14 13 -16 21 -8 31 8 11 8
13 -1 8 -6 -4 -15 -3 -18 3 -4 6 -3 10 2 9 4 -1 17 0 28 1 17 2 17 3 -5 10
-31 10 -55 10 -143 -1z m217 -94 c3 -8 1 -15 -4 -15 -6 0 -10 7 -10 15 0 8 2
15 4 15 2 0 6 -7 10 -15z m133 -85 c-1 -12 -5 -16 -10 -11 -5 5 -6 14 -3 20
11 16 15 13 13 -9z m198 -190 c3 -6 -1 -7 -9 -4 -18 7 -21 14 -7 14 6 0 13 -4
16 -10z"/>
<path d="M11788 10493 c12 -2 30 -2 40 0 9 3 -1 5 -23 4 -22 0 -30 -2 -17 -4z"/>
<path d="M11738 10483 c7 -3 16 -2 19 1 4 3 -2 6 -13 5 -11 0 -14 -3 -6 -6z"/>
<path d="M16300 10475 c0 -8 4 -15 10 -15 5 0 7 7 4 15 -4 8 -8 15 -10 15 -2
0 -4 -7 -4 -15z"/>
<path d="M16866 10478 c3 -5 10 -6 15 -3 13 9 11 12 -6 12 -8 0 -12 -4 -9 -9z"/>
<path d="M16440 10320 c0 -5 5 -10 11 -10 5 0 7 5 4 10 -3 6 -8 10 -11 10 -2
0 -4 -4 -4 -10z"/>
<path d="M11650 10289 c0 -5 5 -7 10 -4 6 3 10 8 10 11 0 2 -4 4 -10 4 -5 0
-10 -5 -10 -11z"/>
<path d="M12030 10190 c0 -5 5 -10 10 -10 6 0 10 5 10 10 0 6 -4 10 -10 10 -5
0 -10 -4 -10 -10z"/>
<path d="M12018 10163 c7 -3 16 -2 19 1 4 3 -2 6 -13 5 -11 0 -14 -3 -6 -6z"/>
<path d="M11131 9824 c0 -11 3 -14 6 -6 3 7 2 16 -1 19 -3 4 -6 -2 -5 -13z"/>
<path d="M11143 9771 c4 -18 7 -37 7 -42 0 -5 4 -9 10 -9 15 0 8 53 -9 70 -13
13 -14 11 -8 -19z"/>
<path d="M11438 9603 c6 -2 18 -2 25 0 6 3 1 5 -13 5 -14 0 -19 -2 -12 -5z"/>
<path d="M11425 9444 c-223 -50 -447 -199 -541 -361 -161 -274 -77 -592 190
-719 98 -47 149 -45 184 6 21 30 23 44 19 96 -6 78 -21 105 -82 146 -74 50
-108 104 -113 182 -4 53 0 74 21 118 47 101 123 180 197 203 22 7 23 6 12 -8
-20 -23 105 -641 128 -633 8 3 42 14 74 26 33 11 105 30 161 42 l101 22 -23
111 c-50 239 -55 261 -63 240 -4 -11 -4 -25 1 -31 11 -14 -55 -14 -68 0 -5 5
-2 6 6 1 9 -5 12 -4 8 2 -4 6 -19 13 -34 15 -16 3 -37 8 -48 13 -16 5 -17 5
-5 -4 13 -9 13 -11 -2 -11 -10 0 -18 6 -18 13 0 8 -2 9 -8 1 -4 -7 -37 -11
-85 -11 -51 0 -73 4 -62 9 8 5 13 14 9 20 -4 7 -10 5 -16 -3 -8 -12 -9 -12 -6
0 2 8 14 16 27 18 17 2 22 -1 18 -11 -4 -11 -1 -13 10 -9 11 4 14 2 9 -5 -4
-7 -1 -12 10 -12 16 0 16 1 1 18 -17 19 -23 37 -9 28 4 -2 16 2 26 10 17 12
17 16 5 30 -13 16 -12 16 5 7 20 -11 25 -9 56 31 8 11 10 17 3 13 -6 -4 -14
-3 -18 3 -3 5 3 10 13 10 21 0 48 25 35 32 -11 6 8 2 28 -6 10 -5 16 -2 16 9
0 8 -4 15 -9 15 -5 0 -6 5 -2 12 5 7 2 9 -8 5 -9 -3 -21 0 -27 6 -8 8 -11 8
-11 -2 0 -11 -3 -11 -17 0 -11 10 -14 10 -9 2 4 -8 1 -13 -9 -13 -9 0 -13 5
-10 10 4 6 -12 10 -40 10 -25 0 -44 4 -41 9 13 21 287 48 339 34 17 -5 46 -33
80 -78 63 -85 123 -124 199 -132 70 -7 119 9 171 56 53 48 77 101 77 177 0
186 -192 307 -356 224 -40 -21 -66 -25 -78 -13 -36 36 -304 53 -421 27z m-60
-314 c-3 -5 -14 -10 -23 -9 -14 0 -13 2 3 9 27 11 27 11 20 0z m49 -95 c3 3 1
-1 -5 -8 -9 -9 -13 -9 -16 0 -2 7 -12 9 -21 6 -14 -4 -15 -3 -2 5 9 7 19 7 26
2 6 -6 14 -8 18 -5z m163 -170 c0 -8 -4 -12 -9 -9 -5 3 -6 10 -3 15 9 13 12
11 12 -6z m156 -214 c3 -13 1 -18 -9 -14 -7 2 -10 11 -7 19 7 19 10 18 16 -5z"/>
<path d="M15480 8795 c-24 -25 -42 -45 -39 -45 3 0 25 20 49 45 24 25 42 45
39 45 -3 0 -25 -20 -49 -45z"/>
<path d="M14985 8788 c-40 -14 -56 -28 -48 -41 3 -5 1 -7 -4 -4 -12 8 -126
-109 -194 -198 -63 -84 -229 -331 -344 -515 -54 -85 -101 -159 -105 -163 -4
-4 -58 50 -121 120 -322 360 -472 490 -695 601 -153 76 -328 129 -462 138
l-77 6 -59 -61 c-33 -33 -58 -62 -55 -64 2 -2 40 -30 84 -63 278 -203 625
-500 955 -819 69 -67 167 -161 219 -210 51 -50 136 -138 188 -197 53 -60 99
-108 103 -108 4 0 31 42 60 93 70 122 294 478 443 702 141 211 349 489 473
630 48 55 70 83 48 63 -39 -38 -64 -43 -87 -18 -9 10 -9 11 1 6 6 -4 12 -2 12
3 0 6 -5 11 -11 11 -8 0 -8 4 0 14 9 11 9 16 0 22 -8 5 -9 3 -4 -6 6 -10 4
-12 -9 -7 -10 4 -27 7 -37 7 -11 0 -18 4 -15 8 3 5 -1 9 -9 9 -8 0 -14 -3 -13
-6 0 -3 0 -13 -1 -21 -1 -12 -4 -12 -12 3 -5 9 -7 22 -4 27 3 6 -1 7 -9 4 -9
-3 -16 -9 -16 -13 0 -9 -54 -6 -70 4 -9 6 -11 4 -5 -6 5 -8 -3 -4 -17 9 -13
12 -27 19 -31 16 -4 -4 -14 -1 -22 6 -13 11 -13 15 -3 21 19 12 -9 10 -47 -3z
m40 -18 c8 -13 -5 -13 -25 0 -13 8 -13 10 2 10 9 0 20 -4 23 -10z m-61 -26 c3
-8 2 -12 -4 -9 -6 3 -10 10 -10 16 0 14 7 11 14 -7z m352 -101 c-7 -7 -26 7
-26 19 0 6 6 6 15 -2 9 -7 13 -15 11 -17z"/>
<path d="M15427 8789 c7 -7 15 -10 18 -7 3 3 -2 9 -12 12 -14 6 -15 5 -6 -5z"/>
<path d="M11671 8385 c-98 -22 -158 -43 -252 -91 -331 -170 -471 -492 -334
-771 62 -126 161 -208 288 -239 l67 -17 36 28 37 28 -7 67 c-9 99 -20 120 -86
167 -108 77 -140 194 -84 305 27 52 150 188 171 188 7 0 17 -17 22 -37 19 -70
120 -517 127 -560 4 -24 8 -43 9 -43 2 0 25 9 52 21 26 11 101 33 166 49 65
16 121 30 123 33 5 4 -29 170 -96 477 -15 69 -25 128 -21 132 7 8 61 -4 126
-27 28 -10 44 -24 54 -46 30 -69 115 -127 198 -137 177 -20 307 176 229 344
-58 125 -203 174 -333 112 -40 -18 -46 -19 -90 -4 -119 38 -283 46 -402 21z"/>
<path d="M17411 7804 c0 -11 3 -14 6 -6 3 7 2 16 -1 19 -3 4 -6 -2 -5 -13z"/>
<path d="M17421 7770 c-1 -18 28 -163 35 -169 8 -8 3 24 -15 104 -11 44 -20
73 -20 65z"/>
<path d="M17461 7585 c-1 -6 8 -62 20 -125 18 -100 19 -121 8 -179 -12 -63
-77 -207 -100 -222 -6 -3 -11 -10 -11 -15 -1 -11 -30 -50 -40 -52 -5 -1 -12
-2 -18 -2 -5 0 -10 -5 -10 -11 0 -5 5 -7 11 -3 7 4 7 -1 -1 -15 -8 -17 -15
-20 -24 -12 -7 6 -15 9 -18 6 -2 -3 -5 2 -5 10 0 11 4 12 14 4 10 -9 13 -8 13
3 0 15 34 48 50 48 5 0 7 7 3 15 -5 14 -8 14 -28 1 -20 -13 -25 -13 -35 -1 -7
8 -22 13 -33 12 -13 -1 -21 3 -19 11 1 6 -2 12 -8 12 -5 0 -10 -10 -11 -22 0
-13 -3 -17 -6 -10 -2 6 -9 12 -14 12 -6 0 -7 -4 -4 -10 4 -6 -1 -7 -12 -3 -36
12 -37 18 -8 24 l30 7 -32 1 c-28 1 -33 -3 -33 -21 0 -17 -3 -19 -12 -10 -7 7
-17 8 -30 1 -12 -7 -25 -6 -39 1 -19 11 -20 13 -4 30 12 14 13 20 4 26 -8 4
-10 3 -5 -4 4 -7 1 -12 -8 -12 -9 0 -15 6 -14 13 2 6 -5 11 -14 9 -10 -2 -18
2 -18 8 0 6 4 9 9 6 5 -4 12 0 15 6 5 10 7 10 12 1 3 -7 10 -13 16 -13 7 0 7
4 1 13 -6 6 -9 20 -7 31 2 17 1 17 -19 -2 -41 -38 -122 -70 -242 -96 -114 -24
-585 -107 -2020 -356 -346 -60 -733 -127 -860 -150 -202 -35 -953 -165 -1274
-221 -90 -15 -126 -17 -173 -9 -112 18 -192 88 -223 194 -14 49 -125 540 -125
553 0 9 127 -5 150 -17 11 -6 29 -27 39 -48 44 -85 126 -134 226 -135 162 -1
266 160 209 325 -45 132 -211 201 -336 140 -45 -22 -48 -23 -105 -7 -197 53
-440 18 -658 -93 -72 -37 -108 -64 -180 -137 -133 -132 -185 -246 -185 -400 0
-229 143 -413 374 -484 70 -22 136 -28 136 -12 0 4 -11 63 -25 129 -14 66 -25
123 -25 125 0 3 -20 17 -44 31 -57 33 -123 109 -136 155 -23 82 -1 164 62 236
39 44 117 105 135 105 5 0 28 -96 51 -212 24 -117 63 -301 87 -408 25 -107 76
-343 115 -524 53 -249 76 -340 96 -373 34 -59 103 -103 161 -103 50 0 435 65
803 134 74 15 252 46 395 71 650 111 664 113 985 171 74 13 293 51 486 84 193
33 411 71 485 84 215 40 860 151 1164 201 154 25 321 56 372 70 263 70 468
248 557 486 70 186 73 367 12 684 -36 185 -53 261 -55 240z m-275 -802 c-49
-96 -170 -204 -269 -241 -29 -11 -223 -49 -432 -86 -209 -36 -549 -94 -755
-130 -206 -36 -600 -104 -875 -151 -275 -47 -779 -135 -1120 -195 -1383 -243
-1320 -233 -1348 -202 -10 11 -21 38 -24 59 -4 32 0 45 19 67 21 25 37 30 168
52 80 13 377 65 660 114 283 49 826 143 1205 209 380 66 911 159 1180 206 509
89 1097 191 1270 220 117 20 234 55 290 88 22 13 41 23 43 21 2 -1 -3 -15 -12
-31z"/>
<path d="M14770 7430 c0 -5 5 -10 11 -10 5 0 7 5 4 10 -3 6 -8 10 -11 10 -2 0
-4 -4 -4 -10z"/>
<path d="M17141 7363 c0 -12 -4 -30 -7 -40 -5 -17 -5 -17 6 0 6 10 9 28 7 40
-4 22 -4 22 -6 0z"/>
<path d="M17085 7150 c3 -6 -1 -7 -10 -4 -13 5 -15 1 -12 -22 4 -27 12 -31 42
-24 24 6 46 -1 39 -12 -4 -7 -3 -8 4 -4 17 10 15 14 -18 31 -19 10 -27 20 -24
30 4 10 0 15 -11 15 -9 0 -13 -4 -10 -10z"/>
<path d="M17181 7103 c7 -12 15 -20 18 -17 3 2 -3 12 -13 22 -17 16 -18 16 -5
-5z"/>
<path d="M17071 7066 c-7 -8 -8 -17 -3 -20 6 -3 13 1 16 10 9 23 2 28 -13 10z"/>
<path d="M17250 7069 c0 -12 56 -15 67 -4 7 8 -1 11 -28 11 -22 -1 -39 -4 -39
-7z"/>
<path d="M17368 7073 c7 -3 16 -2 19 1 4 3 -2 6 -13 5 -11 0 -14 -3 -6 -6z"/>
<path d="M19214 4711 c-56 -24 -89 -97 -88 -193 1 -56 20 -82 79 -109 75 -35
153 -20 210 40 27 29 30 38 30 101 0 74 -14 103 -68 144 -30 22 -127 32 -163
17z"/>
<path d="M9593 4658 c-4 -7 -9 -419 -11 -915 l-3 -903 196 0 196 0 -3 894 c-3
863 -4 895 -22 915 -18 20 -29 21 -182 21 -119 0 -165 -3 -171 -12z"/>
<path d="M13084 4546 c-17 -13 -19 -31 -24 -193 l-5 -178 -75 -5 -75 -5 -3
-137 -3 -137 78 -3 78 -3 -3 -280 c-5 -394 13 -514 92 -618 76 -100 188 -156
327 -164 147 -9 290 37 380 123 l27 26 -52 82 c-28 45 -62 105 -75 133 l-24
52 -41 -34 c-69 -56 -129 -69 -186 -40 -63 32 -65 46 -65 400 l0 320 145 8
c80 5 148 12 153 16 10 10 14 233 4 249 -6 9 -49 12 -157 12 l-148 0 -4 153
c-4 167 -12 193 -69 223 -39 20 -247 20 -275 0z"/>
<path d="M22338 4480 c-24 -13 -46 -37 -66 -74 -27 -50 -29 -63 -34 -192 -3
-77 -2 -348 2 -604 6 -436 8 -468 28 -517 29 -76 57 -116 113 -167 66 -60 141
-87 254 -93 108 -6 196 13 266 58 75 48 75 44 18 157 -28 56 -55 102 -59 102
-5 0 -21 -11 -37 -24 -112 -93 -257 -58 -292 71 -12 42 -15 542 -5 666 l7 77
158 0 159 0 0 98 c0 63 -4 102 -12 110 -8 8 -59 12 -165 12 l-153 0 0 143 c0
138 -1 143 -25 170 -21 22 -34 27 -73 27 -26 -1 -63 -9 -84 -20z"/>
<path d="M5973 4175 c-126 -28 -269 -116 -352 -217 -56 -69 -105 -167 -132
-265 -28 -99 -30 -285 -5 -383 70 -276 288 -459 583 -489 220 -23 428 39 564
167 l62 58 -103 107 -102 107 -47 -34 c-61 -44 -105 -66 -166 -82 -113 -31
-256 -7 -335 56 -44 35 -100 122 -100 156 l0 22 469 -2 c258 0 473 3 478 7 15
15 7 257 -11 332 -57 235 -234 412 -461 460 -86 18 -259 18 -342 0z m259 -309
c68 -20 113 -60 148 -129 52 -105 72 -97 -255 -97 -311 0 -299 -3 -273 57 52
119 146 181 279 182 31 1 76 -5 101 -13z"/>
<path d="M8585 4174 c-102 -22 -331 -124 -351 -155 -5 -9 75 -159 118 -221
l19 -28 50 25 c27 14 91 40 142 57 77 27 107 32 187 32 82 1 102 -3 144 -24
67 -34 89 -66 94 -140 l4 -60 -33 7 c-19 4 -115 8 -214 8 -142 0 -194 -4 -245
-18 -149 -40 -248 -114 -302 -225 -31 -63 -33 -72 -33 -177 1 -90 5 -120 24
-168 43 -110 127 -190 250 -239 48 -20 74 -23 191 -23 161 0 204 12 309 86
l71 50 0 -61 0 -60 180 0 180 0 0 438 c0 450 -5 517 -41 614 -42 114 -172 236
-292 274 -75 24 -357 29 -452 8z m402 -822 c-11 -131 -97 -214 -234 -228 -135
-14 -237 61 -219 161 8 43 63 101 109 114 17 5 103 10 191 10 l159 1 -6 -58z"/>
<path d="M12022 4175 c-109 -24 -287 -98 -371 -154 -11 -7 0 -32 59 -128 39
-65 73 -119 75 -121 1 -1 35 13 76 33 111 52 223 78 327 73 102 -4 155 -26
189 -76 24 -36 41 -119 27 -131 -5 -4 -56 -4 -114 2 -130 12 -327 -3 -421 -32
-78 -25 -166 -85 -214 -148 -108 -142 -96 -389 27 -528 70 -80 175 -130 302
-144 148 -16 279 16 386 95 l60 44 0 -60 0 -60 180 0 180 0 0 453 c0 500 -4
541 -61 647 -60 114 -202 214 -338 240 -75 14 -294 11 -369 -5z m379 -825 c-6
-103 -46 -162 -135 -201 -63 -29 -174 -32 -221 -7 -100 53 -114 175 -28 236
41 29 52 30 228 28 l160 -1 -4 -55z"/>
<path d="M14385 4179 c-196 -45 -364 -177 -450 -354 -54 -112 -69 -182 -69
-330 1 -207 43 -335 151 -454 255 -282 728 -303 1031 -44 l54 46 -103 103
c-57 57 -110 104 -117 104 -7 0 -28 -11 -46 -25 -49 -37 -134 -72 -205 -85
-117 -21 -248 17 -324 93 -36 36 -76 106 -77 135 0 9 101 12 474 12 l474 0 6
31 c13 66 6 224 -14 306 -31 132 -72 206 -165 298 -132 132 -247 175 -460 174
-66 -1 -138 -5 -160 -10z m293 -340 c73 -37 115 -91 128 -161 l6 -38 -291 0
-291 0 19 49 c66 174 253 239 429 150z"/>
<path d="M15980 4180 c-58 -12 -106 -38 -124 -65 -16 -24 -40 -38 -111 -64
-16 -7 -45 -25 -64 -42 -19 -16 -39 -28 -45 -26 -6 2 -12 39 -14 87 -2 52 -8
87 -15 92 -7 4 -67 8 -133 8 -94 0 -123 -3 -127 -14 -10 -24 -8 -1740 2 -1755
7 -11 35 -14 118 -14 168 0 153 -20 154 211 0 108 2 217 4 242 2 25 4 76 4
114 l1 68 58 -53 c109 -101 211 -139 372 -139 175 0 292 45 410 156 125 119
189 252 212 441 19 168 -23 346 -116 485 -51 78 -164 182 -237 219 -101 51
-246 71 -349 49z m199 -279 c75 -39 144 -113 181 -193 30 -64 34 -85 38 -179
5 -121 -14 -200 -69 -283 -114 -171 -355 -216 -529 -98 -245 166 -215 611 50
747 59 31 82 34 185 32 81 -3 108 -7 144 -26z"/>
<path d="M20180 4175 c-14 -7 -58 -17 -97 -20 -90 -9 -167 -44 -246 -112 -85
-72 -171 -197 -204 -296 -25 -76 -27 -95 -27 -242 0 -147 2 -167 27 -240 57
-170 157 -287 310 -364 112 -56 179 -71 315 -71 127 0 237 19 326 57 68 29
158 88 198 130 l28 29 -76 82 c-42 45 -80 82 -86 82 -5 0 -30 -18 -56 -39 -97
-80 -186 -107 -339 -99 -147 8 -248 58 -312 155 -33 49 -65 139 -55 154 3 5
227 9 499 9 440 0 494 2 499 16 3 9 6 64 6 122 0 211 -66 382 -193 499 -59 54
-211 131 -296 149 -84 18 -189 17 -221 -1z m235 -267 c95 -49 175 -156 191
-255 l6 -41 -68 -4 c-38 -3 -203 -5 -368 -7 l-299 -2 7 41 c17 104 92 212 178
256 70 35 112 43 213 40 74 -2 99 -7 140 -28z"/>
<path d="M21535 4175 c-99 -18 -175 -49 -259 -106 -124 -83 -204 -189 -252
-336 -27 -83 -29 -98 -29 -248 1 -148 3 -166 29 -240 92 -266 320 -416 636
-418 184 -1 331 50 447 157 47 42 91 103 81 110 -166 127 -183 131 -268 70
-100 -72 -278 -97 -397 -56 -135 47 -227 170 -256 340 -28 171 57 353 200 430
151 80 337 60 494 -53 27 -19 53 -35 58 -35 14 0 135 157 143 185 10 40 3 50
-73 95 -174 103 -367 140 -554 105z"/>
<path d="M17427 4169 c-70 -17 -122 -51 -204 -135 -44 -46 -84 -84 -87 -84 -3
0 -6 44 -6 98 0 53 -4 103 -8 110 -7 9 -41 12 -138 10 l-129 -3 -3 -662 -2
-663 144 0 145 0 3 373 c3 362 4 373 26 429 65 160 165 238 322 252 25 2 49 4
53 5 4 1 6 63 5 139 l-3 137 -40 2 c-22 1 -57 -3 -78 -8z"/>
<path d="M18075 4161 c-134 -39 -246 -115 -329 -224 -109 -145 -149 -256 -148
-422 0 -132 22 -236 60 -280 16 -18 41 -64 56 -101 27 -71 54 -107 128 -167
120 -97 252 -140 428 -140 215 1 351 50 483 173 90 84 147 169 183 275 25 72
28 94 28 215 0 116 -3 149 -27 234 -31 115 -47 142 -154 261 -60 67 -82 86
-99 82 -13 -2 -26 3 -33 15 -19 31 -88 55 -201 72 -172 25 -305 27 -375 7z
m350 -252 c111 -42 195 -133 236 -257 18 -53 21 -81 17 -170 -4 -117 -27 -184
-88 -261 -141 -178 -443 -188 -594 -20 -193 215 -136 583 109 698 91 43 221
47 320 10z"/>
<path d="M6766 4133 c9 -21 20 -49 24 -63 4 -14 60 -160 125 -325 64 -165 149
-385 190 -490 41 -104 94 -242 118 -305 l44 -115 193 0 192 0 122 305 c203
506 328 820 361 910 18 47 36 93 40 103 7 16 -4 17 -186 15 l-194 -3 -27 -58
c-25 -51 -83 -199 -253 -641 -23 -61 -46 -111 -51 -113 -6 -2 -25 38 -44 89
-18 51 -53 143 -77 203 -24 61 -73 187 -108 281 -35 94 -70 187 -79 207 l-15
37 -196 0 -195 0 16 -37z"/>
<path d="M10182 3736 c-2 -347 1 -450 13 -511 44 -233 187 -372 415 -404 144
-20 289 21 383 108 24 23 47 41 50 41 3 0 7 -30 9 -67 l3 -68 85 1 c47 0 130
1 185 2 l100 2 -3 247 c-1 137 -2 436 -2 666 l0 417 -183 0 -184 0 -6 -287
c-4 -157 -7 -341 -7 -407 0 -100 -4 -129 -21 -166 -49 -108 -123 -160 -229
-160 -90 0 -151 36 -193 115 -21 39 -22 52 -25 473 l-3 432 -192 0 -193 0 -2
-434z"/>
<path d="M19150 3447 c0 -757 -1 -767 -44 -815 -51 -58 -116 -66 -211 -27 -33
14 -63 25 -67 25 -4 0 -32 -42 -63 -92 l-55 -93 22 -19 c77 -62 203 -100 314
-93 170 10 287 96 347 255 22 57 22 60 22 817 l0 760 -132 3 -133 3 0 -724z"/>
</g>
</svg>
